<svg width="33" height="26" viewBox="0 0 33 26" fill="none" xmlns="http://www.w3.org/2000/svg">
<g filter="url(#filter0_d_33_938)">
<path d="M28.1071 15.4286H4.89286C4.65606 15.4286 4.42895 15.4963 4.26151 15.6169C4.09407 15.7374 4 15.9009 4 16.0714V17.3571C4 17.5276 4.09407 17.6912 4.26151 17.8117C4.42895 17.9323 4.65606 18 4.89286 18H28.1071C28.3439 18 28.571 17.9323 28.7385 17.8117C28.9059 17.6912 29 17.5276 29 17.3571V16.0714C29 15.9009 28.9059 15.7374 28.7385 15.6169C28.571 15.4963 28.3439 15.4286 28.1071 15.4286ZM28.1071 10.2857H4.89286C4.65606 10.2857 4.42895 10.3534 4.26151 10.474C4.09407 10.5946 4 10.7581 4 10.9286V12.2143C4 12.3848 4.09407 12.5483 4.26151 12.6689C4.42895 12.7894 4.65606 12.8571 4.89286 12.8571H28.1071C28.3439 12.8571 28.571 12.7894 28.7385 12.6689C28.9059 12.5483 29 12.3848 29 12.2143V10.9286C29 10.7581 28.9059 10.5946 28.7385 10.474C28.571 10.3534 28.3439 10.2857 28.1071 10.2857ZM28.1071 5.14286H4.89286C4.65606 5.14286 4.42895 5.21059 4.26151 5.33115C4.09407 5.4517 4 5.61522 4 5.78571V7.07143C4 7.24193 4.09407 7.40544 4.26151 7.526C4.42895 7.64656 4.65606 7.71429 4.89286 7.71429H28.1071C28.3439 7.71429 28.571 7.64656 28.7385 7.526C28.9059 7.40544 29 7.24193 29 7.07143V5.78571C29 5.61522 28.9059 5.4517 28.7385 5.33115C28.571 5.21059 28.3439 5.14286 28.1071 5.14286ZM28.1071 0H4.89286C4.65606 0 4.42895 0.0677294 4.26151 0.188288C4.09407 0.308848 4 0.472361 4 0.642857V1.92857C4 2.09907 4.09407 2.26258 4.26151 2.38314C4.42895 2.5037 4.65606 2.57143 4.89286 2.57143H28.1071C28.3439 2.57143 28.571 2.5037 28.7385 2.38314C28.9059 2.26258 29 2.09907 29 1.92857V0.642857C29 0.472361 28.9059 0.308848 28.7385 0.188288C28.571 0.0677294 28.3439 0 28.1071 0Z" fill="#11B6CC"/>
</g>
<defs>
<filter id="filter0_d_33_938" x="0" y="0" width="33" height="26" filterUnits="userSpaceOnUse" color-interpolation-filters="sRGB">
<feFlood flood-opacity="0" result="BackgroundImageFix"/>
<feColorMatrix in="SourceAlpha" type="matrix" values="0 0 0 0 0 0 0 0 0 0 0 0 0 0 0 0 0 0 127 0" result="hardAlpha"/>
<feOffset dy="4"/>
<feGaussianBlur stdDeviation="2"/>
<feComposite in2="hardAlpha" operator="out"/>
<feColorMatrix type="matrix" values="0 0 0 0 0 0 0 0 0 0 0 0 0 0 0 0 0 0 0.25 0"/>
<feBlend mode="normal" in2="BackgroundImageFix" result="effect1_dropShadow_33_938"/>
<feBlend mode="normal" in="SourceGraphic" in2="effect1_dropShadow_33_938" result="shape"/>
</filter>
</defs>
</svg>
