<svg width="21" height="27" viewBox="0 0 21 27" fill="none" xmlns="http://www.w3.org/2000/svg">
<g filter="url(#filter0_d_31_692)">
<path d="M10.5 19C9.32715 17.863 8.24003 16.6165 7.24999 15.2736C5.76428 13.2568 4 10.2533 4 7.39115C3.99936 5.92945 4.38026 4.50039 5.0945 3.28481C5.80874 2.06924 6.82422 1.1218 8.01241 0.562404C9.2006 0.00300428 10.5081 -0.143211 11.7694 0.142263C13.0308 0.427737 14.1893 1.13207 15.0983 2.16612C15.7035 2.85089 16.1832 3.66528 16.5096 4.56215C16.836 5.45903 17.0027 6.42058 17 7.39115C17 10.2533 15.2357 13.2568 13.75 15.2736C12.7599 16.6165 11.6728 17.863 10.5 19ZM10.5 4.2251C9.76117 4.2251 9.05261 4.55867 8.53019 5.15242C8.00777 5.74617 7.71428 6.55146 7.71428 7.39115C7.71428 8.23084 8.00777 9.03614 8.53019 9.62989C9.05261 10.2236 9.76117 10.5572 10.5 10.5572C11.2388 10.5572 11.9474 10.2236 12.4698 9.62989C12.9922 9.03614 13.2857 8.23084 13.2857 7.39115C13.2857 6.55146 12.9922 5.74617 12.4698 5.15242C11.9474 4.55867 11.2388 4.2251 10.5 4.2251Z" fill="#11B6CC"/>
</g>
<defs>
<filter id="filter0_d_31_692" x="0" y="0" width="21" height="27" filterUnits="userSpaceOnUse" color-interpolation-filters="sRGB">
<feFlood flood-opacity="0" result="BackgroundImageFix"/>
<feColorMatrix in="SourceAlpha" type="matrix" values="0 0 0 0 0 0 0 0 0 0 0 0 0 0 0 0 0 0 127 0" result="hardAlpha"/>
<feOffset dy="4"/>
<feGaussianBlur stdDeviation="2"/>
<feComposite in2="hardAlpha" operator="out"/>
<feColorMatrix type="matrix" values="0 0 0 0 0 0 0 0 0 0 0 0 0 0 0 0 0 0 0.25 0"/>
<feBlend mode="normal" in2="BackgroundImageFix" result="effect1_dropShadow_31_692"/>
<feBlend mode="normal" in="SourceGraphic" in2="effect1_dropShadow_31_692" result="shape"/>
</filter>
</defs>
</svg>
