<svg width="24" height="24" viewBox="0 0 24 24" fill="none" xmlns="http://www.w3.org/2000/svg">
<path d="M21.625 3.4646L16.1202 3.46462V2.1564C16.1202 1.79374 15.8125 1.5 15.4327 1.5C15.0528 1.5 14.7452 1.79374 14.7452 2.1564V3.46429H9.24519V2.1564C9.24519 1.79374 8.93753 1.5 8.55769 1.5C8.17784 1.5 7.87019 1.79374 7.87019 2.1564V3.46429H2.375C1.61566 3.46429 1 4.0521 1 4.7771V21.1872C1 21.9122 1.61566 22.5 2.375 22.5H21.625C22.3843 22.5 23 21.9122 23 21.1872V4.7771C23 4.05241 22.3843 3.4646 21.625 3.4646ZM21.625 21.1872H2.375V4.7771H7.87019V5.43842C7.87019 5.80107 8.17784 6.09483 8.55769 6.09483C8.93753 6.09483 9.24519 5.80107 9.24519 5.43842V4.77742H14.7452V5.43875C14.7452 5.80141 15.0528 6.09515 15.4327 6.09515C15.8125 6.09515 16.1202 5.80141 16.1202 5.43875V4.77742H21.625V21.1872ZM16.8125 11.9978H18.1875C18.567 11.9978 18.875 11.7038 18.875 11.3414V10.0286C18.875 9.6663 18.567 9.37223 18.1875 9.37223H16.8125C16.433 9.37223 16.125 9.6663 16.125 10.0286V11.3414C16.125 11.7038 16.433 11.9978 16.8125 11.9978ZM16.8125 17.2487H18.1875C18.567 17.2487 18.875 16.955 18.875 16.5923V15.2795C18.875 14.9172 18.567 14.6231 18.1875 14.6231H16.8125C16.433 14.6231 16.125 14.9172 16.125 15.2795V16.5923C16.125 16.9553 16.433 17.2487 16.8125 17.2487ZM12.6875 14.6231H11.3125C10.933 14.6231 10.625 14.9172 10.625 15.2795V16.5923C10.625 16.955 10.933 17.2487 11.3125 17.2487H12.6875C13.067 17.2487 13.375 16.955 13.375 16.5923V15.2795C13.375 14.9175 13.067 14.6231 12.6875 14.6231ZM12.6875 9.37223H11.3125C10.933 9.37223 10.625 9.6663 10.625 10.0286V11.3414C10.625 11.7038 10.933 11.9978 11.3125 11.9978H12.6875C13.067 11.9978 13.375 11.7038 13.375 11.3414V10.0286C13.375 9.66597 13.067 9.37223 12.6875 9.37223ZM7.1875 9.37223H5.8125C5.433 9.37223 5.125 9.6663 5.125 10.0286V11.3414C5.125 11.7038 5.433 11.9978 5.8125 11.9978H7.1875C7.567 11.9978 7.875 11.7038 7.875 11.3414V10.0286C7.875 9.66597 7.567 9.37223 7.1875 9.37223ZM7.1875 14.6231H5.8125C5.433 14.6231 5.125 14.9172 5.125 15.2795V16.5923C5.125 16.955 5.433 17.2487 5.8125 17.2487H7.1875C7.567 17.2487 7.875 16.955 7.875 16.5923V15.2795C7.875 14.9175 7.567 14.6231 7.1875 14.6231Z" fill="white"/>
</svg>
