<svg width="14" height="13" viewBox="0 0 14 13" fill="none" xmlns="http://www.w3.org/2000/svg">
<path d="M6.29474 1.70708C6.35979 1.58475 6.46039 1.48176 6.58517 1.40974C6.70996 1.33773 6.85395 1.29956 7.00087 1.29956C7.14779 1.29956 7.29178 1.33773 7.41657 1.40974C7.54135 1.48176 7.64195 1.58475 7.70699 1.70708L9.03787 4.21121L12.0137 4.61339C12.1592 4.63288 12.2959 4.68978 12.4084 4.77766C12.5209 4.86554 12.6046 4.9809 12.6501 5.11067C12.6956 5.24045 12.7011 5.37947 12.666 5.51199C12.6308 5.64452 12.5565 5.76527 12.4512 5.86058L10.297 7.80977L10.8054 10.5617C10.8303 10.6962 10.8141 10.8345 10.7588 10.961C10.7034 11.0874 10.6111 11.1969 10.4922 11.2772C10.3733 11.3574 10.2326 11.4051 10.0859 11.415C9.93934 11.4248 9.7927 11.3963 9.66262 11.3328L7.00087 10.0328L4.33912 11.3328C4.20903 11.3963 4.06239 11.4248 3.91579 11.415C3.76918 11.4051 3.62847 11.3574 3.50956 11.2772C3.39065 11.1969 3.2983 11.0874 3.24295 10.961C3.1876 10.8345 3.17146 10.6962 3.19637 10.5617L3.70387 7.80977L1.55137 5.85977C1.44643 5.76448 1.37226 5.64386 1.33722 5.51151C1.30218 5.37916 1.30768 5.24035 1.35308 5.11074C1.39848 4.98114 1.48199 4.86589 1.59417 4.77801C1.70636 4.69013 1.84276 4.63312 1.98799 4.61339L4.96299 4.21121L6.29474 1.70708Z" fill="#FFD233"/>
</svg>
