<svg width="24" height="24" viewBox="0 0 24 24" fill="none" xmlns="http://www.w3.org/2000/svg">
<path d="M7.75343 17.2061L14.3745 14.8275C14.4786 14.79 14.5731 14.73 14.6514 14.6518C14.7296 14.5735 14.7896 14.479 14.8271 14.3749L17.2061 7.7538C17.2542 7.61993 17.2632 7.47514 17.2322 7.33632C17.2011 7.1975 17.1312 7.07038 17.0306 6.96979C16.93 6.8692 16.8029 6.7993 16.6641 6.76823C16.5252 6.73716 16.3805 6.74621 16.2466 6.79433L9.62476 9.1725C9.52066 9.20993 9.42613 9.26991 9.34794 9.34817C9.26976 9.42642 9.20985 9.521 9.17251 9.62513L6.79433 16.2466C6.74626 16.3804 6.73723 16.5251 6.76829 16.6639C6.79935 16.8027 6.86922 16.9298 6.96975 17.0303C7.07028 17.1309 7.19733 17.2008 7.33609 17.2319C7.47484 17.263 7.61958 17.2541 7.75343 17.2061ZM10.4645 10.4648L15.2564 8.74365L13.5352 13.5352L8.74366 15.2564L10.4645 10.4648Z" fill="white"/>
<path d="M12 22.5C14.0767 22.5 16.1068 21.8842 17.8335 20.7304C19.5602 19.5767 20.906 17.9368 21.7007 16.0182C22.4955 14.0996 22.7034 11.9884 22.2982 9.95156C21.8931 7.91476 20.8931 6.04383 19.4246 4.57538C17.9562 3.10693 16.0852 2.1069 14.0484 1.70176C12.0116 1.29661 9.90045 1.50455 7.98182 2.29927C6.0632 3.09399 4.42332 4.4398 3.26957 6.16652C2.11581 7.89323 1.5 9.9233 1.5 12C1.50314 14.7838 2.61039 17.4527 4.57884 19.4212C6.5473 21.3896 9.21619 22.4969 12 22.5ZM12 3C13.78 3 15.5201 3.52785 17.0001 4.51678C18.4802 5.50571 19.6337 6.91132 20.3149 8.55585C20.9961 10.2004 21.1743 12.01 20.8271 13.7558C20.4798 15.5016 19.6226 17.1053 18.364 18.364C17.1053 19.6226 15.5016 20.4798 13.7558 20.8271C12.01 21.1743 10.2004 20.9961 8.55585 20.3149C6.91131 19.6337 5.50571 18.4802 4.51677 17.0001C3.52784 15.5201 3 13.78 3 12C3.0026 9.61385 3.95165 7.32618 5.63891 5.63892C7.32618 3.95165 9.61385 3.00261 12 3Z" fill="white"/>
</svg>
